<?xml version="1.0" encoding="utf-8"?>
<!-- Generator: Adobe Illustrator 18.0.0, SVG Export Plug-In . SVG Version: 6.00 Build 0)  -->
<!DOCTYPE svg PUBLIC "-//W3C//DTD SVG 1.1//EN" "http://www.w3.org/Graphics/SVG/1.1/DTD/svg11.dtd">
<svg version="1.1" id="doll1" xmlns="http://www.w3.org/2000/svg" xmlns:xlink="http://www.w3.org/1999/xlink" x="0px" y="0px"
	 viewBox="0 0 238.9 440.4" enable-background="new 0 0 238.9 440.4" xml:space="preserve">
<g>
	<g>
		<path d="M170,83.8c5.7-2,5.7,9,5.7,11.9c-0.1,6.3-6,7.6-10.8,9.6c-1.3,0.5-0.1,0.9,0.7,0.5c6.4-2.6,11.9-4.1,12.1-12
			c0.1-5.5-1.5-12.9-8.3-10.5C168,83.7,169.2,84,170,83.8L170,83.8z"/>
	</g>
</g>
<g>
	<g>
		<path d="M165.5,73.1c1.3,3.6,2.3,10.1-4.3,8.9c-2.7-0.5-4.8-2.6-6.5-4.6c-3.6-4.3-5.4-10.2-6.8-15.5c-0.1-0.5-1.8,0-1.9,0.4
			c-1,5.2,0,9.9,2.5,14.6c0.6-0.2,1.2-0.4,1.8-0.7c-10.4-2.3-20.1-7.2-28.8-13.2c-0.4-0.2-1.9,0-1.9,0.6c0.3,6.4,3.7,11.1,8.9,14.5
			c0.4-0.3,0.9-0.5,1.3-0.8C112.6,78.3,95,66.6,90.1,49.9c-0.1-0.5-2,0-1.9,0.5c0.8,12,4.2,22.9,12,32.2c0.4-0.2,0.7-0.5,1.1-0.7
			c-11.4,1.3-24.5-0.7-32.9-9.2c-8.1-8.2-8-23.9-1-32.6c1-1.2,1.8-1.4,2.1-2.9c0.3-1.3,0.6-2.7,1.1-4c1.6-4.9,4.3-9.4,7.5-13.4
			c13.9-17,39.4-21.2,60.4-18.2c16.2,2.3,31,10.8,39.8,24.9c16.8,27,9.5,64.1,1.6,92.7c-0.2,0.6,1.7,0,1.9-0.3
			c0.2-0.2,0.3-0.5,0.5-0.7c-0.6,0.2-1.2,0.4-1.7,0.6c12.7,5.5,19.2,21.8,17.3,34.9c-1.2,8.4-7.1,15.4-16.2,13.5
			c-3.4-0.7-8.6-3.5-12.2-2.1c-0.9,0.3-1.5,0.7-1.7,1.6c-0.8,3.1,0.4,7.8,0.3,11.1c-0.1,5.1-0.9,11.9-5.3,15.4
			c-3.6,2.8-9.5,0.5-12.9-1.8c-0.4-0.2-1.9,0-1.9,0.6c1.4,16.9-11.1,25.5-26.3,28.1c-5.3,0.9-10.8,1.2-16.1,1
			c-1.2,0-2.5-0.1-3.7-0.2c-1.1-0.1-2.1,0.1-3.2,0.1c-3.3-0.1-5.7-2.7-7.8-4.9c-0.3-0.3-1.9,0.1-1.9,0.6c0.1,9.5,1.7,19.3-10.2,21.5
			c-8.5,1.6-20.7-0.4-18.9-11.5c0.1-0.5-1.1-0.2-1.3-0.1c-8.1,3.1-17.2,1.2-22.2-6.1c-4.4-6.4-1.4-14.1,3.3-19.3
			c0.3-0.3-0.3-0.4-0.5-0.4C27,201.5,13.9,197,9,185.1c-5.3-12.8,5.5-23.3,16.6-27.5c0.1-0.1,0.8-0.3,0.6-0.6
			c-7.6-7.1-17.1-12.6-21.9-22.2c-5.6-11.2-1.6-24.4,8.6-31.3c7.2-4.9,15.8-5.9,24.2-5.7c4.1,0.1,8.5,0.4,12.3-1
			c10-3.6,15.6-15.9,19.5-25c0.2-0.4-1.7-0.2-1.9,0.3c-2.7,6.3-6,12.3-10.1,17.7c-3.3,4.3-7.2,6.8-12.8,7.2
			c-3.5,0.3-7.1-0.1-10.7-0.1c-9.3,0-18.9,3.3-25.9,9.5c-7.8,6.9-9.1,18.3-5.6,27.7c3.6,9.5,13.2,15.4,20.6,21.7
			c2.4,2.1-0.9,2.5-2.7,3.4c-1.9,0.9-3.6,2.1-5.2,3.3c-3,2.3-5.5,5.2-7.1,8.6c-3,6.1-1.7,13.8,2.3,19.1c5,6.7,12.6,10.1,20.7,11.2
			c2.2,0.3,4.4,0.3,6.5,0.2c-0.5,0-3.2,5.2-3.4,5.7c-2.1,4.4-1.6,9.4,0.8,13.5c5,8.6,16.5,9.3,24.8,6.1c-0.4,0-0.9-0.1-1.3-0.1
			c-1.9,12.2,11.6,13.4,20.5,12c4.2-0.7,8.4-2.2,10.9-5.9c3-4.5,1.7-11.9,1.6-16.9c-0.6,0.2-1.2,0.4-1.9,0.6
			c1.8,1.8,3.6,3.5,5.9,4.5c1.8,0.8,3.6,0.3,5.4,0.4c1.3,0.1,2.6,0.2,3.9,0.2c6.2,0.2,12.5-0.2,18.6-1.4c15.4-2.9,28.5-12,27-29.2
			c-0.6,0.2-1.2,0.4-1.9,0.6c3.7,2.5,8.5,3.9,12.9,2.8c3.4-0.9,5.7-3.6,7.1-6.7c1.2-2.6,1.5-5.6,1.8-8.4c0.2-2.2,0.2-4.4,0.2-6.5
			c0-1.6-1.5-7.7,0.9-7.5c6.1,0.5,11.5,3.9,17.8,2.4c5.6-1.3,9.2-7.7,10.6-12.8c3.8-13.6-4.1-31.8-17.2-37.5
			c-0.5-0.2-1.5,0.1-1.7,0.6c-0.2,0.2-0.3,0.5-0.5,0.7c0.6-0.1,1.3-0.2,1.9-0.3c8.4-30.7,16.2-71.8-5.9-98.9
			C165.3,7,148.7,0.8,132.4,0.1C111.3-0.8,86.6,4.5,74,22.9c-2.6,3.7-4.6,7.8-5.9,12.1c-0.3,1-0.5,2-0.7,3c-0.1,0.7,0,0.3-1,1.2
			c-2,1.8-3.3,4.2-4.3,6.6c-3.8,8.8-1.9,20.4,4.4,27.5c6.4,7.2,17.3,9.5,26.5,9.8c2.6,0.1,5.2-0.1,7.8-0.4c0.2,0,1.4-0.3,1.1-0.7
			c-7.7-9.2-11.1-20.1-11.9-32c-0.6,0.2-1.3,0.3-1.9,0.5c5.1,17.2,23.2,28.8,40.8,27.8c0.1,0,1.8-0.5,1.3-0.8
			c-5.1-3.4-8.5-8.1-8.7-14.4c-0.6,0.2-1.2,0.4-1.9,0.6c8.8,6,18.6,11,29.1,13.3c0.2,0.1,2-0.2,1.8-0.7c-2.5-4.6-3.5-9.1-2.5-14.4
			c-0.6,0.1-1.3,0.3-1.9,0.4c2.8,10.2,8.5,24.3,21.4,19.5c0.2-0.1,0.6-0.2,0.6-0.5c0.1-3,0.4-5.9-0.6-8.8
			C167.2,72,165.3,72.6,165.5,73.1L165.5,73.1z"/>
	</g>
</g>
<g>
	<g>
		<path d="M170.6,83.2c-0.5-1.6-1.2-3.1-2-4.6c-0.4-0.8-2.2-0.1-1.8,0.9c0.7,1.4,1.3,2.8,1.8,4.2C168.9,84.6,170.9,84.1,170.6,83.2
			L170.6,83.2z"/>
	</g>
</g>
<g>
	<path d="M154.7,88.9c0.7,0,1.3,0,1.9-0.1c0.6-0.1,1.3-0.2,1.9-0.3c1.3-0.2,2.5-0.6,3.7-0.9c-1.1,0.8-2.3,1.3-3.6,1.6
		c-0.7,0.1-1.3,0.2-2,0.2C156,89.3,155.3,89.2,154.7,88.9z"/>
</g>
<g>
	<g>
		<path d="M156.6,95.9c0,2.8-1.1,5.6-3,7.7c-1.9,2.1-4.7,3.4-7.6,3.4c-2.9,0.1-5.8-1.1-7.8-3.2c-2.1-2.1-3.2-5-3.2-7.9
			c0-2.9,1.2-5.8,3.2-7.9c2-2.1,5-3.3,7.8-3.2c2.9,0,5.7,1.3,7.6,3.4C155.5,90.3,156.6,93.1,156.6,95.9z M156.6,95.9
			c0-2.8-1.1-5.6-3.1-7.6c-2-2-4.7-3.1-7.5-3c-2.7,0-5.4,1.3-7.2,3.3c-1.9,2-2.9,4.6-2.9,7.3c0,2.7,1,5.4,2.9,7.3
			c1.8,2,4.5,3.2,7.2,3.3c2.7,0.1,5.5-1,7.5-3C155.4,101.5,156.5,98.7,156.6,95.9z"/>
	</g>
	<g>
		<path d="M132,86.5c1.6-1.7,3.7-2.9,6-3.5c2.3-0.6,4.7-0.7,7-0.2c2.3,0.5,4.5,1.4,6.5,2.7c1.9,1.3,3.7,2.9,5.2,4.7l-0.1,0.1
			c-1.8-1.4-3.6-2.8-5.6-4c-1.9-1.2-3.9-2.2-6.1-2.8c-2.2-0.6-4.5-0.6-6.7-0.1C135.9,84,133.8,85,132,86.5L132,86.5z"/>
	</g>
	<g>
		<path d="M128.9,82.6c0.6,0.7,1.4,1.2,2.2,1.6c0.4,0.2,0.8,0.3,1.2,0.5c0.4,0.2,0.8,0.4,1.2,0.7l0,0.1c-0.5,0.2-1,0.2-1.5,0.1
			c-0.5-0.1-0.9-0.4-1.3-0.7C129.9,84.2,129.2,83.5,128.9,82.6L128.9,82.6z"/>
	</g>
	<g>
		<path d="M132.4,80.6c0.7,0.6,1.4,1.2,2.2,1.5c0.4,0.2,0.8,0.2,1.2,0.4c0.4,0.2,0.8,0.4,1.2,0.7l0,0.1c-0.5,0.2-1,0.2-1.5,0.1
			c-0.5-0.1-0.9-0.4-1.3-0.7C133.5,82.3,132.8,81.5,132.4,80.6L132.4,80.6z"/>
	</g>
	<g>
		<path d="M137.2,79.1c0.5,0.8,1.2,1.5,1.9,2c0.4,0.3,0.8,0.4,1.1,0.7c0.3,0.3,0.7,0.5,1.1,0.9l0,0.1c-0.5,0.1-1,0-1.5-0.2
			c-0.5-0.2-0.8-0.6-1.1-1C137.9,81,137.4,80.1,137.2,79.1L137.2,79.1z"/>
	</g>
	<g>
		<path d="M156.6,95.9c0,2.8-1.1,5.6-3,7.7c-1.9,2.1-4.7,3.4-7.6,3.4c-2.9,0.1-5.8-1.1-7.8-3.2c-2.1-2.1-3.2-5-3.2-7.9
			c0-2.9,1.2-5.8,3.2-7.9c2-2.1,5-3.3,7.8-3.2c2.9,0,5.7,1.3,7.6,3.4C155.5,90.3,156.6,93.1,156.6,95.9z M156.6,95.9
			c0-2.8-1.1-5.6-3.1-7.6c-2-2-4.7-3.1-7.5-3c-2.7,0-5.4,1.3-7.2,3.3c-1.9,2-2.9,4.6-2.9,7.3c0,2.7,1,5.4,2.9,7.3
			c1.8,2,4.5,3.2,7.2,3.3c2.7,0.1,5.5-1,7.5-3C155.4,101.5,156.5,98.7,156.6,95.9z"/>
	</g>
	<g>
		<path d="M132,86.5c1.6-1.7,3.7-2.9,6-3.5c2.3-0.6,4.7-0.7,7-0.2c2.3,0.5,4.5,1.4,6.5,2.7c1.9,1.3,3.7,2.9,5.2,4.7l-0.1,0.1
			c-1.8-1.4-3.6-2.8-5.6-4c-1.9-1.2-3.9-2.2-6.1-2.8c-2.2-0.6-4.5-0.6-6.7-0.1C135.9,84,133.8,85,132,86.5L132,86.5z"/>
	</g>
	<g>
		<path d="M128.9,82.6c0.6,0.7,1.4,1.2,2.2,1.6c0.4,0.2,0.8,0.3,1.2,0.5c0.4,0.2,0.8,0.4,1.2,0.7l0,0.1c-0.5,0.2-1,0.2-1.5,0.1
			c-0.5-0.1-0.9-0.4-1.3-0.7C129.9,84.2,129.2,83.5,128.9,82.6L128.9,82.6z"/>
	</g>
	<g>
		<path d="M132.4,80.6c0.7,0.6,1.4,1.2,2.2,1.5c0.4,0.2,0.8,0.2,1.2,0.4c0.4,0.2,0.8,0.4,1.2,0.7l0,0.1c-0.5,0.2-1,0.2-1.5,0.1
			c-0.5-0.1-0.9-0.4-1.3-0.7C133.5,82.3,132.8,81.5,132.4,80.6L132.4,80.6z"/>
	</g>
	<g>
		<path d="M137.2,79.1c0.5,0.8,1.2,1.5,1.9,2c0.4,0.3,0.8,0.4,1.1,0.7c0.3,0.3,0.7,0.5,1.1,0.9l0,0.1c-0.5,0.1-1,0-1.5-0.2
			c-0.5-0.2-0.8-0.6-1.1-1C137.9,81,137.4,80.1,137.2,79.1L137.2,79.1z"/>
	</g>
	<g>
		
			<linearGradient id="SVGID_1_" gradientUnits="userSpaceOnUse" x1="135.3851" y1="348.0865" x2="156.5551" y2="348.0865" gradientTransform="matrix(1 0 0 -1 0 444)">
			<stop  offset="0" style="stop-color:#FFFFFF"/>
			<stop  offset="7.360000e-02" style="stop-color:#7FD0E8"/>
			<stop  offset="0.1534" style="stop-color:#00B0D8"/>
			<stop  offset="0.3006" style="stop-color:#008AA9"/>
			<stop  offset="0.9888" style="stop-color:#00708C"/>
		</linearGradient>
		<ellipse fill="url(#SVGID_1_)" cx="146" cy="95.9" rx="10.6" ry="10.8"/>
		<path d="M156.6,95.9c0,2.8-1.1,5.6-3,7.7c-1.9,2.1-4.7,3.4-7.6,3.4c-2.9,0.1-5.8-1.1-7.8-3.2c-2.1-2.1-3.2-5-3.2-7.9
			c0-2.9,1.2-5.8,3.2-7.9c2-2.1,5-3.3,7.8-3.2c2.9,0,5.7,1.3,7.6,3.4C155.5,90.3,156.6,93.1,156.6,95.9z M156.6,95.9
			c0-2.8-1.1-5.6-3.1-7.6c-2-2-4.7-3.1-7.5-3c-2.7,0-5.4,1.3-7.2,3.3c-1.9,2-2.9,4.6-2.9,7.3c0,2.7,1,5.4,2.9,7.3
			c1.8,2,4.5,3.2,7.2,3.3c2.7,0.1,5.5-1,7.5-3C155.4,101.5,156.5,98.7,156.6,95.9z"/>
	</g>
	<g>
		<path d="M132,86.5c1.6-1.7,3.7-2.9,6-3.5c2.3-0.6,4.7-0.7,7-0.2c2.3,0.5,4.5,1.4,6.5,2.7c1.9,1.3,3.7,2.9,5.2,4.7l-0.1,0.1
			c-1.8-1.4-3.6-2.8-5.6-4c-1.9-1.2-3.9-2.2-6.1-2.8c-2.2-0.6-4.5-0.6-6.7-0.1C135.9,84,133.8,85,132,86.5L132,86.5z"/>
	</g>
	<g>
		<path d="M128.9,82.6c0.6,0.7,1.4,1.2,2.2,1.6c0.4,0.2,0.8,0.3,1.2,0.5c0.4,0.2,0.8,0.4,1.2,0.7l0,0.1c-0.5,0.2-1,0.2-1.5,0.1
			c-0.5-0.1-0.9-0.4-1.3-0.7C129.9,84.2,129.2,83.5,128.9,82.6L128.9,82.6z"/>
	</g>
	<g>
		<path d="M132.4,80.6c0.7,0.6,1.4,1.2,2.2,1.5c0.4,0.2,0.8,0.2,1.2,0.4c0.4,0.2,0.8,0.4,1.2,0.7l0,0.1c-0.5,0.2-1,0.2-1.5,0.1
			c-0.5-0.1-0.9-0.4-1.3-0.7C133.5,82.3,132.8,81.5,132.4,80.6L132.4,80.6z"/>
	</g>
	<g>
		<path d="M137.2,79.1c0.5,0.8,1.2,1.5,1.9,2c0.4,0.3,0.8,0.4,1.1,0.7c0.3,0.3,0.7,0.5,1.1,0.9l0,0.1c-0.5,0.1-1,0-1.5-0.2
			c-0.5-0.2-0.8-0.6-1.1-1C137.9,81,137.4,80.1,137.2,79.1L137.2,79.1z"/>
	</g>
	<ellipse cx="148.7" cy="96.8" rx="4.9" ry="4.5"/>
	
		<radialGradient id="SVGID_2_" cx="128.0257" cy="351.3489" r="4.0866" gradientTransform="matrix(1.0793 0 0 -1 3.2578 444)" gradientUnits="userSpaceOnUse">
		<stop  offset="0.4971" style="stop-color:#FFFFFF"/>
		<stop  offset="1" style="stop-color:#FFFFFF"/>
	</radialGradient>
	<path fill="url(#SVGID_2_)" d="M141.5,92c-1.6,2.5-1.3,6-2.6,5.3c-1.2-0.7-1.6-4,0-6.5c1.6-2.5,4.5-3.3,5.8-2.7
		S143.1,89.5,141.5,92z"/>
	<g>
		<path d="M132,84.6c1.6-1.6,3.7-2.8,6-3.4c2.2-0.6,4.6-0.6,6.9-0.1c2.3,0.5,4.4,1.5,6.3,2.8c1.9,1.3,3.7,2.8,5.3,4.4l0,0
			c-1.7-1.6-3.5-3-5.4-4.2c-1.9-1.2-4-2.2-6.3-2.8c-2.2-0.5-4.6-0.6-6.8,0C135.8,81.9,133.7,83,132,84.6L132,84.6z"/>
	</g>
	<g>
		<path d="M138.1,106.7c1.1,0.3,2.1,0.5,3.2,0.6c1.1,0.1,2.1,0.2,3.2,0.2c2.1,0,4.2-0.5,6.2-1.3c-0.9,0.7-1.9,1.2-2.9,1.5
			c-1.1,0.4-2.2,0.5-3.3,0.6C142.2,108.3,140,107.8,138.1,106.7z"/>
	</g>
	<g>
		<path d="M151.4,86.9c0.5,0.1,0.9,0,1.3-0.1c0.4-0.1,0.8-0.2,1.3-0.3c0.4-0.1,0.8-0.3,1.2-0.4c0.4-0.2,0.8-0.4,1.2-0.5
			c-0.6,0.7-1.4,1.2-2.3,1.5c-0.4,0.1-0.9,0.2-1.4,0.2C152.3,87.2,151.8,87.2,151.4,86.9z"/>
	</g>
	<ellipse fill="#1C252E" cx="149.6" cy="98" rx="3.1" ry="2.9"/>
	<path fill="#FFFFFF" d="M154.1,100.4c-0.5,1-1.6,1.5-2.4,1.1c-0.8-0.4-1.1-1.5-0.6-2.5c0.5-1,1.6-1.5,2.4-1.1
		C154.4,98.3,154.6,99.4,154.1,100.4z"/>
</g>
<g>
	<g>
		<path d="M107.2,97.1c0.3,2.6,0,5.3-1.3,7.6c-1.2,2.3-3.3,4.3-6,4.8c-2.6,0.6-5.5-0.5-7.4-2.4c-1.9-1.9-3.1-4.5-3.4-7.1
			c-0.3-2.6,0.1-5.4,1.4-7.8c1.3-2.3,3.6-4.2,6.3-4.6c2.7-0.5,5.4,0.7,7.1,2.6C105.8,92,106.9,94.5,107.2,97.1z M107.2,97.1
			c-0.4-2.6-1.5-5-3.3-6.9c-1.8-1.8-4.5-2.8-7-2.2c-2.5,0.5-4.5,2.3-5.7,4.5c-1.2,2.2-1.6,4.8-1.2,7.3c0.3,2.5,1.3,4.9,3.1,6.7
			c1.7,1.8,4.2,2.9,6.7,2.5c2.5-0.4,4.7-2.1,5.9-4.4C107.1,102.3,107.5,99.6,107.2,97.1z"/>
	</g>
	<g>
		<path d="M85.6,91c1-1.7,2.6-3.2,4.4-4.2c1.8-1,4-1.3,6-1.1c2.1,0.2,4.1,0.9,5.8,1.9c1.8,1.1,3.4,2.4,4.7,3.9l-0.1,0.1
			c-1.7-1.1-3.3-2.3-5.1-3.2c-1.7-0.9-3.6-1.7-5.5-2c-1.9-0.3-4,0-5.7,0.8C88.4,88,86.8,89.4,85.6,91L85.6,91z"/>
	</g>
	<g>
		<path d="M82.5,87.5c0.6,0.5,1.3,1,2,1.3c0.4,0.1,0.7,0.2,1.1,0.3c0.3,0.1,0.7,0.3,1.1,0.5l0,0.1C86.3,90,85.8,90,85.3,90
			c-0.5,0-0.8-0.3-1.2-0.6C83.4,88.9,82.8,88.3,82.5,87.5L82.5,87.5z"/>
	</g>
	<g>
		<path d="M85.2,85.1c0.6,0.5,1.3,0.9,2,1.2c0.4,0.1,0.7,0.2,1.1,0.3c0.3,0.1,0.7,0.3,1.1,0.5l0,0.1c-0.4,0.3-0.9,0.3-1.3,0.3
			c-0.5,0-0.8-0.3-1.2-0.5C86.2,86.5,85.6,85.9,85.2,85.1L85.2,85.1z"/>
	</g>
	<g>
		<path d="M89,83c0.5,0.7,1.1,1.3,1.8,1.7c0.3,0.2,0.7,0.4,1,0.6c0.3,0.2,0.6,0.4,1,0.8l0,0.1c-0.5,0.1-1,0.1-1.4-0.1
			c-0.4-0.2-0.8-0.5-1.1-0.8C89.7,84.6,89.2,83.9,89,83L89,83z"/>
	</g>
	<g>
		<path d="M107.2,97.1c0.3,2.6,0,5.3-1.3,7.6c-1.2,2.3-3.3,4.3-6,4.8c-2.6,0.6-5.5-0.5-7.4-2.4c-1.9-1.9-3.1-4.5-3.4-7.1
			c-0.3-2.6,0.1-5.4,1.4-7.8c1.3-2.3,3.6-4.2,6.3-4.6c2.7-0.5,5.4,0.7,7.1,2.6C105.8,92,106.9,94.5,107.2,97.1z M107.2,97.1
			c-0.4-2.6-1.5-5-3.3-6.9c-1.8-1.8-4.5-2.8-7-2.2c-2.5,0.5-4.5,2.3-5.7,4.5c-1.2,2.2-1.6,4.8-1.2,7.3c0.3,2.5,1.3,4.9,3.1,6.7
			c1.7,1.8,4.2,2.9,6.7,2.5c2.5-0.4,4.7-2.1,5.9-4.4C107.1,102.3,107.5,99.6,107.2,97.1z"/>
	</g>
	<g>
		<path d="M85.6,91c1-1.7,2.6-3.2,4.4-4.2c1.8-1,4-1.3,6-1.1c2.1,0.2,4.1,0.9,5.8,1.9c1.8,1.1,3.4,2.4,4.7,3.9l-0.1,0.1
			c-1.7-1.1-3.3-2.3-5.1-3.2c-1.7-0.9-3.6-1.7-5.5-2c-1.9-0.3-4,0-5.7,0.8C88.4,88,86.8,89.4,85.6,91L85.6,91z"/>
	</g>
	<g>
		<path d="M82.5,87.5c0.6,0.5,1.3,1,2,1.3c0.4,0.1,0.7,0.2,1.1,0.3c0.3,0.1,0.7,0.3,1.1,0.5l0,0.1C86.3,90,85.8,90,85.3,90
			c-0.5,0-0.8-0.3-1.2-0.6C83.4,88.9,82.8,88.3,82.5,87.5L82.5,87.5z"/>
	</g>
	<g>
		<path d="M85.2,85.1c0.6,0.5,1.3,0.9,2,1.2c0.4,0.1,0.7,0.2,1.1,0.3c0.3,0.1,0.7,0.3,1.1,0.5l0,0.1c-0.4,0.3-0.9,0.3-1.3,0.3
			c-0.5,0-0.8-0.3-1.2-0.5C86.2,86.5,85.6,85.9,85.2,85.1L85.2,85.1z"/>
	</g>
	<g>
		<path d="M89,83c0.5,0.7,1.1,1.3,1.8,1.7c0.3,0.2,0.7,0.4,1,0.6c0.3,0.2,0.6,0.4,1,0.8l0,0.1c-0.5,0.1-1,0.1-1.4-0.1
			c-0.4-0.2-0.8-0.5-1.1-0.8C89.7,84.6,89.2,83.9,89,83L89,83z"/>
	</g>
	<g>
		
			<linearGradient id="SVGID_3_" gradientUnits="userSpaceOnUse" x1="91.1355" y1="316.0569" x2="108.9513" y2="316.0569" gradientTransform="matrix(0.99 -0.1412 -0.1412 -0.99 43.9789 425.483)">
			<stop  offset="0" style="stop-color:#FFFFFF"/>
			<stop  offset="7.360000e-02" style="stop-color:#7FD0E8"/>
			<stop  offset="0.1534" style="stop-color:#00B0D8"/>
			<stop  offset="0.3006" style="stop-color:#008AA9"/>
			<stop  offset="0.9888" style="stop-color:#00708C"/>
		</linearGradient>
		<path fill="url(#SVGID_3_)" d="M107.2,97.1c0.8,5.9-2.6,11.4-7.4,12.1c-4.9,0.8-9.4-3.4-10.2-9.4c-0.8-5.9,2.6-11.4,7.4-12.1
			S106.4,91.1,107.2,97.1z"/>
		<path d="M107.2,97.1c0.3,2.6,0,5.3-1.3,7.6c-1.2,2.3-3.3,4.3-6,4.8c-2.6,0.6-5.5-0.5-7.4-2.4c-1.9-1.9-3.1-4.5-3.4-7.1
			c-0.3-2.6,0.1-5.4,1.4-7.8c1.3-2.3,3.6-4.2,6.3-4.6c2.7-0.5,5.4,0.7,7.1,2.6C105.8,92,106.9,94.5,107.2,97.1z M107.2,97.1
			c-0.4-2.6-1.5-5-3.3-6.9c-1.8-1.8-4.5-2.8-7-2.2c-2.5,0.5-4.5,2.3-5.7,4.5c-1.2,2.2-1.6,4.8-1.2,7.3c0.3,2.5,1.3,4.9,3.1,6.7
			c1.7,1.8,4.2,2.9,6.7,2.5c2.5-0.4,4.7-2.1,5.9-4.4C107.1,102.3,107.5,99.6,107.2,97.1z"/>
	</g>
	<g>
		<path d="M85.6,91c1-1.7,2.6-3.2,4.4-4.2c1.8-1,4-1.3,6-1.1c2.1,0.2,4.1,0.9,5.8,1.9c1.8,1.1,3.4,2.4,4.7,3.9l-0.1,0.1
			c-1.7-1.1-3.3-2.3-5.1-3.2c-1.7-0.9-3.6-1.7-5.5-2c-1.9-0.3-4,0-5.7,0.8C88.4,88,86.8,89.4,85.6,91L85.6,91z"/>
	</g>
	<g>
		<path d="M82.5,87.5c0.6,0.5,1.3,1,2,1.3c0.4,0.1,0.7,0.2,1.1,0.3c0.3,0.1,0.7,0.3,1.1,0.5l0,0.1C86.3,90,85.8,90,85.3,90
			c-0.5,0-0.8-0.3-1.2-0.6C83.4,88.9,82.8,88.3,82.5,87.5L82.5,87.5z"/>
	</g>
	<g>
		<path d="M85.2,85.1c0.6,0.5,1.3,0.9,2,1.2c0.4,0.1,0.7,0.2,1.1,0.3c0.3,0.1,0.7,0.3,1.1,0.5l0,0.1c-0.4,0.3-0.9,0.3-1.3,0.3
			c-0.5,0-0.8-0.3-1.2-0.5C86.2,86.5,85.6,85.9,85.2,85.1L85.2,85.1z"/>
	</g>
	<g>
		<path d="M89,83c0.5,0.7,1.1,1.3,1.8,1.7c0.3,0.2,0.7,0.4,1,0.6c0.3,0.2,0.6,0.4,1,0.8l0,0.1c-0.5,0.1-1,0.1-1.4-0.1
			c-0.4-0.2-0.8-0.5-1.1-0.8C89.7,84.6,89.2,83.9,89,83L89,83z"/>
	</g>
	<path d="M104.8,98.3c0.3,2.5-1.2,4.7-3.5,5.1c-2.2,0.4-4.3-1.4-4.6-3.8c-0.3-2.5,1.2-4.7,3.5-5.1C102.4,94.1,104.5,95.8,104.8,98.3
		z"/>
	
		<radialGradient id="SVGID_4_" cx="116.0849" cy="316.8273" r="4.0865" gradientTransform="matrix(0.8972 -0.1412 -0.128 -0.99 30.6101 425.8746)" gradientUnits="userSpaceOnUse">
		<stop  offset="0.4971" style="stop-color:#FFFFFF"/>
		<stop  offset="1" style="stop-color:#FFFFFF"/>
	</radialGradient>
	<path fill="url(#SVGID_4_)" d="M94.2,95.2c-1,2.7-0.4,6.1-1.5,5.6c-1.1-0.5-1.9-3.7-0.9-6.5c1-2.7,3.3-3.9,4.5-3.4
		C97.4,91.4,95.2,92.5,94.2,95.2z"/>
	<g>
		<path d="M85.4,89c1.1-1.7,2.6-3.1,4.4-4c1.8-0.9,3.9-1.3,5.9-1c2,0.2,3.9,1,5.7,2c1.7,1,3.4,2.2,4.9,3.6l0,0
			c-1.6-1.3-3.2-2.5-4.9-3.4c-1.7-1-3.6-1.7-5.6-2c-2-0.3-4,0-5.8,0.9C88,86,86.5,87.4,85.4,89L85.4,89z"/>
	</g>
	<g>
		<path d="M93.2,110.1c0.9,0.2,1.8,0.2,2.7,0.2c0.9,0,1.8-0.1,2.7-0.3c1.8-0.3,3.4-1.1,5-2.2c-0.6,0.7-1.3,1.4-2.1,1.8
			c-0.8,0.5-1.7,0.8-2.7,1C96.9,111.2,94.9,111,93.2,110.1z"/>
	</g>
	<g>
		<path d="M101.8,88.8c0.4,0,0.8-0.1,1.1-0.2c0.3-0.1,0.7-0.3,1-0.5c0.7-0.3,1.2-0.8,1.9-1.3c-0.4,0.7-1,1.3-1.7,1.7
			c-0.4,0.2-0.7,0.3-1.2,0.4C102.6,89,102.1,89,101.8,88.8z"/>
	</g>
	<path fill="#1C252E" d="M104.3,99.7c0.2,1.6-0.8,3-2.2,3.3c-1.4,0.2-2.8-0.9-3-2.5s0.8-3,2.2-3.3C102.8,97,104.1,98.1,104.3,99.7z"
		/>
	<path fill="#FFFFFF" d="M105.7,101.8c-0.3,1.1-1.1,1.7-1.9,1.4s-1.1-1.3-0.8-2.4c0.3-1.1,1.1-1.7,1.9-1.4
		C105.7,99.7,106,100.8,105.7,101.8z"/>
</g>
<g>
	<path d="M110.1,119.9c1.9,0.2,3.9,0.3,5.8,0.3c1.9,0,3.9,0,5.8-0.1c3.9-0.3,7.7-0.7,11.5-1.6l1-0.2l-0.4,0.9
		c-1.1,2.3-2.7,4.3-4.6,6c-1.9,1.7-4.4,2.9-7,2.8c-2.6-0.1-5-1.2-7-2.8C113.2,123.7,111.5,121.9,110.1,119.9z M110.1,119.9
		c1.6,1.8,3.4,3.6,5.4,5c2,1.4,4.3,2.4,6.7,2.3c2.4,0,4.6-1.1,6.4-2.7c1.8-1.6,3.2-3.6,4.4-5.7l0.5,0.7c-3.9,0.8-7.8,1.3-11.7,1.3
		c-2,0-3.9,0-5.9-0.1C113.9,120.5,112,120.3,110.1,119.9z"/>
</g>
<path fill="none" stroke="#000000" stroke-width="0.25" stroke-miterlimit="10" d="M95.4,115.1c-0.6,0.3-1.2,0.5-1.6,0.9"/>
<path fill="none" stroke="#000000" stroke-width="0.25" stroke-miterlimit="10" d="M91.8,115.8c0.6-0.2,1.1-0.6,1.7-0.7"/>
<path fill="none" stroke="#000000" stroke-width="0.25" stroke-miterlimit="10" d="M149.2,113c-0.7-0.1-1.6,0-2.2,0.3"/>
<path fill="none" stroke="#000000" stroke-width="0.25" stroke-miterlimit="10" d="M144.7,113.2c0.4-0.4,0.9-0.6,1.4-0.7"/>
<g>
	<path d="M115.6,108.7c-0.2,0.4-0.4,0.8-0.6,1.2c-0.1,0.4-0.2,0.8-0.1,1.2c0.1,0.4,0.4,0.6,0.8,0.9c0.4,0.2,0.8,0.4,1.2,0.6
		c-0.5,0-0.9-0.1-1.4-0.3c-0.4-0.2-0.9-0.5-1-1.1c-0.2-0.5,0-1.1,0.2-1.5C115,109.3,115.3,108.9,115.6,108.7z"/>
</g>
<ellipse opacity="0.43" fill="#FFCCBF" enable-background="new    " cx="94.9" cy="115.6" rx="4.4" ry="2.4"/>
<ellipse opacity="0.43" fill="#FFCCBF" enable-background="new    " cx="94.9" cy="115.6" rx="4.4" ry="2.4"/>
<ellipse opacity="0.43" fill="#FFCCBF" enable-background="new    " cx="145.9" cy="113.6" rx="4.4" ry="2.4"/>
<g>
	<path fill="#FFFFFF" d="M229.6,264.2c0,0,7.7,7.4,6.7,12"/>
	<path d="M229.6,264.2c1,0.7,1.9,1.5,2.7,2.3c0.8,0.9,1.6,1.8,2.3,2.8c0.7,1,1.3,2.1,1.6,3.2c0.4,1.1,0.6,2.5,0.1,3.6
		c0-1.2-0.4-2.3-0.9-3.3c-0.5-1-1.1-2-1.7-3C232.4,268,230.9,266.2,229.6,264.2z"/>
</g>
<path id="doll_path" fill="#FFFFFF" stroke="#000000" stroke-miterlimit="10" d="M121.7,140.1l-0.4,7.3c-17.2,1.3-23.9,4.8-23.9,4.8h-0.1
	c0,0-20.3,37.7-27.1,58.1c-4.2,12.5-11.2,37.6-18.9,42.2c0,0-11.4,5.6-11.4,12.8s4.9,11.7,13.3,8.5c1.1-0.4-0.6-2.4-0.6-3.5
	c0-2.1,5.3-7.2,7-6.2c1.1,0.6,0.7,4.7,0.9,6.1c0.2,1.2,1.7,3.7,2.5,3.8c3,0.3,1.2-4.8,1.7-6.6c1.4-4.6,1-14.4,2.6-18.9
	c8-22.1,13.9-27.4,19.6-39.8l12.6-26.1l3.8,49.6l0,0c0,0,3.9,45.3,3.9,46.1c0,0,0,25.6,0,34.1c0,0.1,0,0.1,0,0.2
	c-0.8,11.1,7.8,96.6,6.4,99.3c-1.1,1.9-4.3,3.9-4.6,4.2c-2.9,2.9-17.8,10.4-16.5,15.8c1.3,5.4,11.6,7.5,22.9,4.8
	c11.4-2.8,19.5-9.4,18.2-14.8c-0.4-1.5-0.1-1.3-1.2-4.4c-4.4-9.6-4.1-27.3-4.1-27.8c1.2-38.6-2.2-76-2.2-77.2v-34
	c1.2-0.1,1.8-9.2,5.8-9.4c3.6-0.1,4.3,8.6,5,8.8c-0.3,6-0.5,22.8,4.7,35.1c0,0,21.3,70.1,24.9,86.6c0,0,2.6,13.8,3.2,20.6
	c0,0-1.7,10.7,7.2,17.7c0,0,10.3,4.5,16.4,1.9c0,0,7.2,3.3-9.4-31.6c-9.2-19.3-11.8-70.2-18.9-89.4c-0.7-1.9-7.7-19.1-7.7-19.1
	l-2-23.3c3.6-1.4,4.9-48.9,4.9-48.9l4-54.1v-0.6l24.4,40.3c3.8,12.8,24.4,41,24.4,41c0.7,5.6,0.8,10.7,3.4,12.2c5,3,5.2,5.9,7.1,6.3
	c1.3,0.3-1.8-7.7-1.8-7.7s1.5,0.8,5.4,2.8c5.4,2.8,7.1,11.1,9.2,8.7c5.7-6.5,0-15.4,0-15.4c-14-12.2-41.3-66-41.3-66l-15.4-32
	c-5.5-14.1-13.4-13.4-13.4-13.4c-9.7-1.3-18.2-1.9-25.6-2.2l-2.6-11.9"/>
<g>
	<path fill="#FFFFFF" d="M233,261.6c0,0,3.8,3.6,5.9,11.2"/>
	<path d="M233,261.6c1.7,1.3,2.9,3.2,3.9,5.1c1,1.9,1.7,4,2,6.1c-0.9-2-1.7-3.9-2.7-5.8c-0.5-0.9-1-1.8-1.5-2.8
		C234.1,263.4,233.6,262.5,233,261.6z"/>
</g>
<g>
	<path fill="#FFFFFF" d="M52.7,264.5c0,0-6,3.1-1.8,9.9"/>
	<path d="M52.7,264.6c-0.8,0.5-1.4,1.2-1.9,2c-0.5,0.8-0.8,1.6-0.9,2.5c-0.1,0.9,0.1,1.7,0.3,2.6c0.2,0.9,0.5,1.7,0.7,2.7l-0.1,0.1
		c-0.8-0.7-1.3-1.5-1.7-2.5c-0.4-1-0.3-2-0.1-3c0.2-1,0.7-1.9,1.3-2.7C51,265.5,51.8,264.9,52.7,264.6L52.7,264.6z"/>
</g>
<g>
	<path fill="#FFFFFF" d="M49.7,263.4c0,0-6,3.5-1.8,11"/>
	<path d="M49.7,263.4c-1.6,1.3-2.7,3.1-2.8,5.1c-0.1,1,0.2,1.9,0.3,2.9c0.2,1,0.5,1.9,0.7,3l-0.1,0.1c-0.8-0.8-1.3-1.7-1.7-2.8
		c-0.4-1-0.3-2.2-0.1-3.3C46.4,266.2,47.8,264.3,49.7,263.4L49.7,263.4z"/>
</g>
<g>
	<path fill="#FFFFFF" d="M45.4,262.5c0,0-5,4.9,0,11.4"/>
	<path d="M45.4,262.5c-1.2,1.6-1.9,3.7-1.8,5.6c0.1,1,0.5,1.9,0.7,2.8c0.3,0.9,0.7,1.8,1,2.9l-0.1,0.1c-0.9-0.6-1.6-1.5-2.1-2.5
		c-0.5-1-0.6-2.2-0.6-3.3c0-1.1,0.3-2.2,0.8-3.2C43.9,264,44.5,263.1,45.4,262.5L45.4,262.5z"/>
</g>
<g>
	<g>
		<path d="M70.5,77.5c4.3,11.2,5.8,23.1,9.6,34.4c3.5,10.3,10.3,17.9,20,22.6c6.2,3,13.5,5.3,20.3,6.2c6.5,0.8,12.2-1.6,17.7-4.6
			c11.7-6.5,21.5-17.4,26.7-29.8c0.4-1-1.5-1-1.8-0.2c-5.3,12.6-15.1,23-27,29.6c-7.4,4.1-14.2,4.4-22.2,2
			c-6.4-1.9-12.8-4.1-18.3-7.8c-17-11.3-16.3-35.6-23-52.9C72.1,76.1,70.2,76.6,70.5,77.5L70.5,77.5z"/>
	</g>
</g>
<path fill="#FFFFFF" stroke="#000000" stroke-miterlimit="10" d="M110.3,148.3c0,0-8.9,14.9-3.8,28.9h48.3c0,0,1.2-24-3.3-29h5.3
	c0,0,8.2,13.7,7.5,24.2s2.1-0.6,1,1.6s-5.4,65.2-5.4,65.2h-57.1l-3.2-56.8c0,0-4.6-25,4-32.3L110.3,148.3z"/>
<path fill="#FFFFFF" stroke="#000000" stroke-miterlimit="10" d="M103.6,239.1l56.2,0.7c0,0-1.2,35.6-3.9,36.4l-18.9,3.2
	c0,0-1.7-10.5-5.3-10.2c-0.2,0-0.3,0.1-0.5,0.1c-3.9,1.5-4,10-4,10l-20.8-4l-2.7-35.9"/>
</svg>
