<?xml version="1.0" encoding="utf-8"?>
<!-- Generator: Adobe Illustrator 18.0.0, SVG Export Plug-In . SVG Version: 6.00 Build 0)  -->
<!DOCTYPE svg PUBLIC "-//W3C//DTD SVG 1.1//EN" "http://www.w3.org/Graphics/SVG/1.1/DTD/svg11.dtd">
<svg version="1.1" id="Layer_1" xmlns="http://www.w3.org/2000/svg" xmlns:xlink="http://www.w3.org/1999/xlink" x="0px" y="0px"
	 viewBox="0 0 800 600" enable-background="new 0 0 800 600" xml:space="preserve">
<rect x="0.8" y="257.1" fill="#AA002A" stroke="#000000" stroke-miterlimit="10" width="799.2" height="62.1"/>
<rect x="0.1" fill="#579F00" stroke="#000000" stroke-miterlimit="10" width="799.7" height="257.8"/>
<rect y="318.6" fill="#9F6C49" stroke="#000000" stroke-miterlimit="10" width="799.7" height="281.8"/>
<line fill="none" stroke="#000000" stroke-miterlimit="10" x1="400" y1="318.6" x2="400.4" y2="600"/>
<line fill="none" stroke="#000000" stroke-miterlimit="10" x1="53" y1="318.6" x2="0" y2="411"/>
<line fill="none" stroke="#000000" stroke-miterlimit="10" x1="229" y1="318.6" x2="172" y2="605"/>
<line fill="none" stroke="#000000" stroke-miterlimit="10" x1="133" y1="318.6" x2="40" y2="600"/>
<line fill="none" stroke="#000000" stroke-miterlimit="10" x1="311" y1="318.6" x2="293" y2="595"/>
<line fill="none" stroke="#000000" stroke-miterlimit="10" x1="359" y1="318.6" x2="356" y2="600"/>
<line fill="none" stroke="#000000" stroke-miterlimit="10" x1="271" y1="318.6" x2="237" y2="600"/>
<line fill="none" stroke="#000000" stroke-miterlimit="10" x1="172" y1="319.1" x2="104" y2="600.4"/>
<line fill="none" stroke="#000000" stroke-miterlimit="10" x1="86.5" y1="319.1" x2="0" y2="503"/>
<line fill="none" stroke="#000000" stroke-miterlimit="10" x1="697" y1="318.6" x2="800" y2="396"/>
<line fill="none" stroke="#000000" stroke-miterlimit="10" x1="561" y1="318.6" x2="632" y2="600"/>
<line fill="none" stroke="#000000" stroke-miterlimit="10" x1="632" y1="319.1" x2="783" y2="605"/>
<line fill="none" stroke="#000000" stroke-miterlimit="10" x1="473" y1="318.6" x2="506" y2="600.4"/>
<line fill="none" stroke="#000000" stroke-miterlimit="10" x1="433" y1="318.6" x2="452" y2="600"/>
<line fill="none" stroke="#000000" stroke-miterlimit="10" x1="519" y1="318.6" x2="567" y2="605"/>
<line fill="none" stroke="#000000" stroke-miterlimit="10" x1="596.5" y1="319.1" x2="697" y2="600.4"/>
<line fill="none" stroke="#000000" stroke-miterlimit="10" x1="673" y1="318.6" x2="799.7" y2="474"/>
<line fill="none" stroke="#000000" stroke-miterlimit="10" x1="966" y1="474" x2="1092.7" y2="629.4"/>
</svg>
