<?xml version="1.0" encoding="utf-8"?>
<!-- Generator: Adobe Illustrator 18.0.0, SVG Export Plug-In . SVG Version: 6.00 Build 0)  -->
<!DOCTYPE svg PUBLIC "-//W3C//DTD SVG 1.1//EN" "http://www.w3.org/Graphics/SVG/1.1/DTD/svg11.dtd">
<svg version="1.1" id="Layer_1" xmlns="http://www.w3.org/2000/svg" xmlns:xlink="http://www.w3.org/1999/xlink" x="0px" y="0px"
	 viewBox="0 0 798.6 598.6" enable-background="new 0 0 798.6 598.6" xml:space="preserve">
<rect x="0.7" y="339.5" fill="#C69C6D" stroke="#000000" stroke-miterlimit="10" width="797.9" height="259.3"/>
<line fill="none" stroke="#000000" stroke-miterlimit="10" x1="416.8" y1="598.7" x2="416.8" y2="342.7"/>
<line fill="none" stroke="#000000" stroke-miterlimit="10" x1="17.1" y1="341.9" x2="0" y2="373.4"/>
<line fill="none" stroke="#000000" stroke-miterlimit="10" x1="63.1" y1="342.3" x2="0" y2="460"/>
<line fill="none" stroke="#000000" stroke-miterlimit="10" x1="107.7" y1="341.9" x2="20.3" y2="598.6"/>
<line fill="none" stroke="#000000" stroke-miterlimit="10" x1="167.6" y1="342.3" x2="136.7" y2="598.6"/>
<line fill="none" stroke="#000000" stroke-miterlimit="10" x1="217.5" y1="341.9" x2="192.5" y2="598.6"/>
<line fill="none" stroke="#000000" stroke-miterlimit="10" x1="329.3" y1="342.3" x2="321.9" y2="598.6"/>
<line fill="none" stroke="#000000" stroke-miterlimit="10" x1="267.9" y1="341.9" x2="253.8" y2="598.6"/>
<line fill="none" stroke="#000000" stroke-miterlimit="10" x1="136.1" y1="341.9" x2="85.6" y2="598.6"/>
<line fill="none" stroke="#000000" stroke-miterlimit="10" x1="376.9" y1="595.7" x2="376.9" y2="339.7"/>
<line fill="none" stroke="#000000" stroke-miterlimit="10" x1="760.8" y1="339.5" x2="798.6" y2="401.2"/>
<line fill="none" stroke="#000000" stroke-miterlimit="10" x1="713.8" y1="342.3" x2="800.1" y2="576.4"/>
<line fill="none" stroke="#000000" stroke-miterlimit="10" x1="647.6" y1="339.5" x2="681" y2="595.7"/>
<line fill="none" stroke="#000000" stroke-miterlimit="10" x1="593.5" y1="341.9" x2="620.7" y2="595.7"/>
<line fill="none" stroke="#000000" stroke-miterlimit="10" x1="472.3" y1="339.5" x2="480.3" y2="595.7"/>
<line fill="none" stroke="#000000" stroke-miterlimit="10" x1="538.8" y1="341.9" x2="554.2" y2="595.7"/>
<line fill="none" stroke="#000000" stroke-miterlimit="10" x1="682.4" y1="342.3" x2="736.4" y2="595.7"/>
<line fill="none" stroke="#000000" stroke-miterlimit="10" x1="416.8" y1="598.7" x2="416.8" y2="342.7"/>
<rect x="0" y="289.7" fill="#9E005D" stroke="#000000" stroke-miterlimit="10" width="798.6" height="49.8"/>
<rect x="0" y="0" fill="#8CC63F" stroke="#000000" stroke-miterlimit="10" width="798.6" height="303"/>
</svg>
