<?xml version="1.0" encoding="utf-8"?>
<!-- Generator: Adobe Illustrator 18.0.0, SVG Export Plug-In . SVG Version: 6.00 Build 0)  -->
<!DOCTYPE svg PUBLIC "-//W3C//DTD SVG 1.1//EN" "http://www.w3.org/Graphics/SVG/1.1/DTD/svg11.dtd">
<svg version="1.1" id="Layer_1" xmlns="http://www.w3.org/2000/svg" xmlns:xlink="http://www.w3.org/1999/xlink" x="0px" y="0px"
	 viewBox="0 0 960 560" enable-background="new 0 0 960 560" xml:space="preserve">
<rect x="0" y="300.8" fill="#C69C6D" stroke="#000000" stroke-miterlimit="10" width="958.8" height="259.3"/>
<g>
	<path fill="#FFFFFF" d="M-1391.9,238.5l-66.6-45.4c-1.1-0.7-2.3-1.2-3.5-1.5c-1.6-7.4-3.6-13.8-5.9-18.7
		c14.9-5.1,25.7-19.3,25.7-35.9c0-21-17-38-38-38s-38,17-38,38c0,17.1,11.3,31.5,26.7,36.3c-2,4.4-3.7,9.8-5.2,16
		c-1.8,0.2-3.5,0.9-5,2.1l-63.3,49.9c-4.4,3.4-5.1,9.8-1.7,14.2c3.4,4.4,9.8,5.1,14.2,1.7l52-41c-0.4,5.3-0.6,10.9-0.6,16.6
		c0,19.7,2.4,37.6,6.3,50.5c-1.6,1.2-2.8,2.9-3.5,4.9l-40.6,126.5c-1.7,5.3,1.2,11,6.5,12.7s11-1.2,12.7-6.5l37.7-117.2
		c0.8,0.3,1.6,0.5,2.4,0.5c0.2,0,0.4,0,0.6-0.1l35.6,117.1c1.6,5.3,7.3,8.3,12.6,6.7c5.3-1.6,8.3-7.3,6.7-12.6l-38.7-127.1
		c-0.4-1.4-1.2-2.7-2.1-3.7c4.1-13,6.7-31.3,6.7-51.7c0-5.2-0.2-10.3-0.5-15.2l55.3,37.7c4.6,3.1,10.9,1.9,14-2.6v0
		C-1386.1,247.9-1387.3,241.6-1391.9,238.5z"/>
	<g>
		<path d="M-1391.1,237.2c-13.2-9-26.3-17.9-39.5-26.9c-7.6-5.2-15.2-10.3-22.7-15.5c-1.5-1-2.9-2-4.4-3c-0.8-0.6-1.4-0.8-2.3-1.2
			c-1.5-0.7-1.8-5-2.2-6.5c-1.1-4.1-2.6-8.1-4.3-12.1c-0.3,0.7-0.6,1.5-0.9,2.2c18.5-6.7,29.3-25.1,26.1-44.6
			c-3.1-18.7-20.3-31.9-38.8-32.3c-18.9-0.3-35.2,14.1-38.8,32.3c-3.9,19.7,8.6,38.8,27.2,45c-0.3-0.7-0.6-1.5-0.9-2.2
			c-1.1,2.5-2.1,5.1-2.9,7.7c-0.9,2.7-0.9,7.3-3.9,8.3c-1.5,0.5-2.8,1.6-4.1,2.6c-3.7,2.9-7.5,5.9-11.2,8.8
			c-12.3,9.7-24.7,19.4-37,29.2c-7.3,5.7-20.2,12.2-18,23.2c1.7,8.3,12.4,10.7,18.5,5.9c3.1-2.4,6.2-4.9,9.3-7.3
			c14.2-11.2,28.5-22.4,42.7-33.6c-0.9-0.4-1.7-0.7-2.6-1.1c-1,15.1-0.7,30.3,1.2,45.3c0.7,5.7,1.8,11.4,3.1,17
			c0.8,3.2,1.1,3.5-0.5,6.2c-0.7,1.1-1.2,2-1.6,3.3c-2.4,7.5-4.8,15-7.2,22.5c-9.3,28.9-18.6,57.9-27.9,86.8
			c-2.1,6.5-6.1,14.4-6,21.4c0.2,8.8,11.5,13.8,18.3,8.5c3.1-2.4,4.1-5.5,5.3-9c8.5-26.4,16.9-52.7,25.4-79.1
			c3.7-11.7,7.5-23.3,11.2-35c-0.6,0.3-1.2,0.7-1.8,1c1.2,0.3,2.2,0.6,3.4,0.5c-0.5-0.4-1-0.7-1.4-1.1c6.7,22.1,13.4,44.1,20.1,66.2
			c4.1,13.5,8.2,26.9,12.3,40.4c2.5,8.4,4.3,19.7,15.9,18.6c7.2-0.7,11.4-8.5,9.4-15c-0.8-2.5-1.5-5-2.3-7.5
			c-3.8-12.3-7.5-24.7-11.3-37c-8-26.3-16-52.5-24-78.8c-0.3-1.1-0.7-2.3-1-3.4c-0.4-1.2-0.9-2.4-1.7-3.4c-1-1.3,1.9-8.7,2.3-10.4
			c4-18.5,4.6-37.8,3.5-56.6c-0.8,0.4-1.5,0.9-2.3,1.3c14.1,9.6,28.1,19.2,42.2,28.8c4.6,3.1,9.5,7.6,14.7,9.8
			c12.7,5.3,22.4-11.4,11.6-19.9c-1.5-1.2-3.6,0.9-2.1,2.1c7.2,5.7,3.6,15.8-5.3,15.8c-2.5,0-4.7-1.9-6.7-3.2
			c-6.1-4.1-12.2-8.3-18.2-12.4c-11.5-7.9-23.1-15.7-34.6-23.6c-0.9-0.6-2.3,0.2-2.3,1.3c1,15.6,0.5,31.2-1.7,46.7
			c-0.9,5.9-2.1,11.7-3.7,17.4c-1.2,4.3,0.1,2.9,1.4,7.4c2.4,8,4.9,16,7.3,24c8.8,29,17.7,58,26.5,87c2.3,7.5,9.9,22.4-0.9,26.5
			c-11,4.2-13.9-16-15.9-22.5c-8.7-28.7-17.4-57.4-26.2-86c-1.4-4.7-2.9-9.5-4.3-14.2c-0.2-0.6-0.8-1.2-1.4-1.1
			c-0.9,0.1-1.8,0-2.6-0.4c-0.8-0.2-1.6,0.3-1.8,1c-7,21.9-14.1,43.8-21.1,65.7c-4.3,13.5-8.7,27-13,40.5c-1.1,3.3-2.1,6.7-3.2,10
			c-0.6,1.8-1.4,3.3-2.8,4.7c-6.3,6.4-16.3-1.5-13.8-9.2c7-21.7,13.9-43.4,20.9-65c4.6-14.3,9.2-28.7,13.8-43
			c1.5-4.6,2.9-9.1,4.4-13.7c1.1-3.4,1.7-6.3,4.6-8.9c0.4-0.3,0.5-1,0.4-1.5c-6.3-21.5-7.2-44.6-5.7-66.8c0.1-1.5-1.6-1.8-2.6-1.1
			c-8.7,6.8-17.3,13.7-26,20.5c-8.9,7-17.5,14.7-26.8,21c-4,2.8-9.3,0.6-11.7-3c-2.6-3.7-0.8-8.5,2.2-11.2c0.6-0.6,1.4-1.1,2-1.6
			c4.3-3.4,8.5-6.7,12.8-10.1c12.3-9.7,24.6-19.4,36.9-29.1c4.5-3.6,10-9.7,15.9-10.8c0.5-0.1,0.9-0.6,1-1c1.3-5.3,2.8-10.6,5-15.6
			c0.4-0.9,0.1-1.9-0.9-2.2c-17.5-5.8-28-23.1-25.1-41.3c2.8-16.9,17.8-29.1,34.5-30c17.2-0.9,32.3,11.2,36.7,27.4
			c5,18.3-6.1,37.2-23.4,43.5c-1,0.4-1.3,1.3-0.9,2.2c2.6,5.9,4.3,12.1,5.7,18.4c0.1,0.5,0.6,0.9,1,1c4.4,1.3,8.5,5,12.2,7.5
			c7.7,5.2,15.3,10.5,23,15.7c11.5,7.9,23,15.7,34.5,23.6C-1391,240.9-1389.5,238.3-1391.1,237.2z"/>
	</g>
</g>
<ellipse fill="#FFFFFF" stroke="#000000" stroke-miterlimit="10" cx="-1493.5" cy="125.2" rx="5.3" ry="3.5"/>
<ellipse fill="#FFFFFF" stroke="#000000" stroke-miterlimit="10" cx="-1464.2" cy="125.2" rx="6.2" ry="3.5"/>
<path fill="none" stroke="#000000" stroke-miterlimit="10" d="M-1469.3,155.6c-5.2,6.9-16.7,7.1-25.7,0.4"/>
<linearGradient id="SVGID_1_" gradientUnits="userSpaceOnUse" x1="-2121.4246" y1="1043.3105" x2="-2124.4243" y2="852.3105" gradientTransform="matrix(1 0 0 -1 0 562)">
	<stop  offset="0" style="stop-color:#FFFFFF"/>
	<stop  offset="1" style="stop-color:#996600"/>
</linearGradient>
<rect x="-2523" y="-522" fill="url(#SVGID_1_)" width="800" height="282"/>
<linearGradient id="SVGID_2_" gradientUnits="userSpaceOnUse" x1="-2122.5" y1="1203.6123" x2="-2122.5" y2="1425.0137" gradientTransform="matrix(1 0 0 -1 0 562)">
	<stop  offset="0" style="stop-color:#FFFFFF"/>
	<stop  offset="0.9367" style="stop-color:#3FA9F5"/>
</linearGradient>
<rect x="-2522.5" y="-845.5" fill="url(#SVGID_2_)" stroke="#000000" stroke-miterlimit="10" width="800" height="191"/>
<path fill="#FFFFFF" d="M-2043-652.5c0,0-5-70.5,60-59.5c0,0,4-45,51-36c0,0,3-41,42-17c0,0-2-49.3,36-47c0,0,62,4,42,51
	c0,0,65,7,43,65c0,0,32-18,37,24c0,0,21,2,12,19.5S-2043-652.5-2043-652.5z"/>
<linearGradient id="SVGID_3_" gradientUnits="userSpaceOnUse" x1="-2122" y1="1064.4189" x2="-2122" y2="1229.0205" gradientTransform="matrix(1 0 0 -1 0 562)">
	<stop  offset="0" style="stop-color:#FFFFFF"/>
	<stop  offset="1" style="stop-color:#33CCFF"/>
</linearGradient>
<rect x="-2522" y="-654" fill="url(#SVGID_3_)" width="800" height="142"/>
<g>
	<path fill="#999999" d="M-1719-594c-37,1-74,5-111,10c-14,2-24,3-37,10c-11,7-18,15-31,17c-24,5-47,1-70,9c-12,4-21,15-31,18
		c-9,2-19-3-28-2c-9,2-40,12-46,20c-8,11,1,10,11,16c17,10,14,16,24,35c12,23,27,21,52,22c16,1,59-8,72,6c3,4,2,16,2,20
		c2,15,4,30,10,44c11,21,28,36,50,42c23,6,45,7,67,15c17,7,31,12,49,14c7,1,18,0,16,2L-1719-594z"/>
</g>
<line fill="#C69C6D" stroke="#000000" stroke-miterlimit="10" x1="479.5" y1="560" x2="479.5" y2="304"/>
<line fill="#C69C6D" stroke="#000000" stroke-miterlimit="10" x1="79.1" y1="303.2" x2="0" y2="397.5"/>
<line fill="#C69C6D" stroke="#000000" stroke-miterlimit="10" x1="125.2" y1="303.6" x2="0" y2="501.8"/>
<line fill="#C69C6D" stroke="#000000" stroke-miterlimit="10" x1="169.8" y1="303.2" x2="82.3" y2="559.9"/>
<line fill="#C69C6D" stroke="#000000" stroke-miterlimit="10" x1="229.8" y1="303.6" x2="198.9" y2="559.9"/>
<line fill="#C69C6D" stroke="#000000" stroke-miterlimit="10" x1="279.8" y1="303.2" x2="254.8" y2="559.9"/>
<line fill="#C69C6D" stroke="#000000" stroke-miterlimit="10" x1="391.8" y1="303.6" x2="384.4" y2="559.9"/>
<line fill="#C69C6D" stroke="#000000" stroke-miterlimit="10" x1="330.3" y1="303.2" x2="316.2" y2="559.9"/>
<line fill="#C69C6D" stroke="#000000" stroke-miterlimit="10" x1="198.3" y1="303.2" x2="147.7" y2="559.9"/>
<line fill="#C69C6D" stroke="#000000" stroke-miterlimit="10" x1="439.5" y1="557" x2="439.5" y2="301"/>
<line fill="#C69C6D" stroke="#000000" stroke-miterlimit="10" x1="884.8" y1="300.8" x2="959.9" y2="387.2"/>
<line fill="#C69C6D" stroke="#000000" stroke-miterlimit="10" x1="824.1" y1="300.8" x2="959.9" y2="498.9"/>
<line fill="#C69C6D" stroke="#000000" stroke-miterlimit="10" x1="777" y1="303.6" x2="870.6" y2="557"/>
<line fill="#C69C6D" stroke="#000000" stroke-miterlimit="10" x1="710.7" y1="300.8" x2="744.2" y2="557"/>
<line fill="#C69C6D" stroke="#000000" stroke-miterlimit="10" x1="656.5" y1="303.2" x2="683.7" y2="557"/>
<line fill="#C69C6D" stroke="#000000" stroke-miterlimit="10" x1="535.1" y1="300.8" x2="543.1" y2="557"/>
<line fill="#C69C6D" stroke="#000000" stroke-miterlimit="10" x1="601.7" y1="303.2" x2="617.1" y2="557"/>
<line fill="#C69C6D" stroke="#000000" stroke-miterlimit="10" x1="745.6" y1="303.6" x2="799.7" y2="557"/>
<line fill="none" stroke="#000000" stroke-miterlimit="10" x1="479.5" y1="560" x2="479.5" y2="304"/>
<rect x="362.5" y="655.7" fill="none" stroke="#000000" stroke-miterlimit="10" width="937" height="243.4"/>
<rect x="0" y="251" fill="#9E005D" stroke="#000000" stroke-miterlimit="10" width="958.8" height="49.8"/>
<rect x="-0.2" y="-2.4" fill="#8CC63F" stroke="#000000" stroke-miterlimit="10" width="959.1" height="253.6"/>
</svg>
